<mxfile host="65bd71144e">
    <diagram id="6I0OCvxSQrVGMHxT2VVA" name="Page-1">
        <mxGraphModel dx="1955" dy="1327" grid="1" gridSize="10" guides="1" tooltips="1" connect="1" arrows="1" fold="1" page="1" pageScale="1" pageWidth="850" pageHeight="1100" background="#E6E6E6" math="0" shadow="1">
            <root>
                <mxCell id="0"/>
                <mxCell id="1" parent="0"/>
                <mxCell id="WtVcBaEnB1_Sni-o9t-m-2" value="&lt;font face=&quot;Helvetica&quot; style=&quot;font-size: 20px;&quot;&gt;调度协程&lt;/font&gt;" style="ellipse;whiteSpace=wrap;html=1;fillColor=#d5e8d4;strokeColor=#82b366;shadow=1;" parent="1" vertex="1">
                    <mxGeometry x="490" y="520" width="140" height="70" as="geometry"/>
                </mxCell>
                <mxCell id="WtVcBaEnB1_Sni-o9t-m-3" value="&lt;font style=&quot;font-size: 20px;&quot;&gt;调度协程&lt;/font&gt;" style="ellipse;whiteSpace=wrap;html=1;fillColor=#d5e8d4;strokeColor=#82b366;shadow=1;" parent="1" vertex="1">
                    <mxGeometry x="1050" y="520" width="140" height="70" as="geometry"/>
                </mxCell>
                <mxCell id="WtVcBaEnB1_Sni-o9t-m-4" value="&lt;font style=&quot;font-size: 20px;&quot;&gt;调度协程&lt;/font&gt;" style="ellipse;whiteSpace=wrap;html=1;fillColor=#d5e8d4;strokeColor=#82b366;shadow=1;" parent="1" vertex="1">
                    <mxGeometry x="865" y="520" width="140" height="70" as="geometry"/>
                </mxCell>
                <mxCell id="WtVcBaEnB1_Sni-o9t-m-7" value="&lt;font face=&quot;Helvetica&quot; style=&quot;font-size: 20px;&quot;&gt;子协程1&lt;/font&gt;" style="ellipse;whiteSpace=wrap;html=1;fillColor=#fff2cc;strokeColor=#d6b656;shadow=1;fontSize=20;" parent="1" vertex="1">
                    <mxGeometry x="575" y="650" width="140" height="70" as="geometry"/>
                </mxCell>
                <mxCell id="WtVcBaEnB1_Sni-o9t-m-8" value="&lt;font face=&quot;Helvetica&quot; style=&quot;font-size: 20px;&quot;&gt;子协程2&lt;/font&gt;" style="ellipse;whiteSpace=wrap;html=1;fillColor=#fff2cc;strokeColor=#d6b656;shadow=1;fontSize=20;" parent="1" vertex="1">
                    <mxGeometry x="775" y="650" width="140" height="70" as="geometry"/>
                </mxCell>
                <mxCell id="WtVcBaEnB1_Sni-o9t-m-9" value="&lt;font face=&quot;Helvetica&quot; style=&quot;font-size: 20px;&quot;&gt;子协程3&lt;/font&gt;" style="ellipse;whiteSpace=wrap;html=1;fillColor=#fff2cc;strokeColor=#d6b656;shadow=1;fontSize=20;" parent="1" vertex="1">
                    <mxGeometry x="975" y="650" width="140" height="70" as="geometry"/>
                </mxCell>
                <mxCell id="WtVcBaEnB1_Sni-o9t-m-10" value="&lt;font style=&quot;font-size: 20px;&quot;&gt;调度协程&lt;/font&gt;" style="ellipse;whiteSpace=wrap;html=1;fillColor=#d5e8d4;strokeColor=#82b366;shadow=1;" parent="1" vertex="1">
                    <mxGeometry x="675" y="520" width="140" height="70" as="geometry"/>
                </mxCell>
                <mxCell id="40" value="" style="edgeStyle=none;html=1;entryX=0;entryY=0.5;entryDx=0;entryDy=0;" edge="1" parent="1" source="13" target="38">
                    <mxGeometry relative="1" as="geometry">
                        <mxPoint x="125" y="410" as="targetPoint"/>
                    </mxGeometry>
                </mxCell>
                <mxCell id="13" value="Main( )开始" style="shape=umlActor;verticalLabelPosition=bottom;verticalAlign=top;html=1;outlineConnect=0;labelBackgroundColor=#2f933f;fontSize=24;" parent="1" vertex="1">
                    <mxGeometry x="170" y="255" width="30" height="60" as="geometry"/>
                </mxCell>
                <mxCell id="19" value="&lt;span style=&quot;background-color: rgb(47, 132, 147);&quot;&gt;Main( )结束&lt;/span&gt;" style="shape=umlActor;verticalLabelPosition=bottom;verticalAlign=top;html=1;outlineConnect=0;labelBackgroundColor=#2f933f;fontSize=24;" parent="1" vertex="1">
                    <mxGeometry x="1410" y="255" width="40" height="60" as="geometry"/>
                </mxCell>
                <mxCell id="20" value="" style="endArrow=classic;html=1;labelBackgroundColor=#151d1e;fontSize=24;exitX=0.744;exitY=0.994;exitDx=0;exitDy=0;entryX=0.414;entryY=0;entryDx=0;entryDy=0;entryPerimeter=0;exitPerimeter=0;" parent="1" source="WtVcBaEnB1_Sni-o9t-m-2" target="WtVcBaEnB1_Sni-o9t-m-7" edge="1">
                    <mxGeometry width="50" height="50" relative="1" as="geometry">
                        <mxPoint x="605" y="580" as="sourcePoint"/>
                        <mxPoint x="655" y="530" as="targetPoint"/>
                    </mxGeometry>
                </mxCell>
                <mxCell id="21" value="" style="endArrow=classic;html=1;labelBackgroundColor=#151d1e;fontSize=24;exitX=0.636;exitY=-0.029;exitDx=0;exitDy=0;exitPerimeter=0;" parent="1" source="WtVcBaEnB1_Sni-o9t-m-7" edge="1">
                    <mxGeometry width="50" height="50" relative="1" as="geometry">
                        <mxPoint x="665" y="660" as="sourcePoint"/>
                        <mxPoint x="725" y="590" as="targetPoint"/>
                    </mxGeometry>
                </mxCell>
                <mxCell id="31" value="" style="endArrow=classic;html=1;labelBackgroundColor=#151d1e;fontSize=24;exitX=1;exitY=1;exitDx=0;exitDy=0;entryX=0.357;entryY=0;entryDx=0;entryDy=0;entryPerimeter=0;" parent="1" target="WtVcBaEnB1_Sni-o9t-m-8" edge="1">
                    <mxGeometry width="50" height="50" relative="1" as="geometry">
                        <mxPoint x="775.0031151624373" y="589.9953045358602" as="sourcePoint"/>
                        <mxPoint x="798.2199999999998" y="660.37" as="targetPoint"/>
                    </mxGeometry>
                </mxCell>
                <mxCell id="33" value="" style="endArrow=classic;html=1;labelBackgroundColor=#151d1e;fontSize=24;exitX=0.636;exitY=-0.029;exitDx=0;exitDy=0;exitPerimeter=0;" parent="1" edge="1">
                    <mxGeometry width="50" height="50" relative="1" as="geometry">
                        <mxPoint x="854.04" y="649.9999999999998" as="sourcePoint"/>
                        <mxPoint x="915" y="592.03" as="targetPoint"/>
                    </mxGeometry>
                </mxCell>
                <mxCell id="35" value="" style="endArrow=classic;html=1;labelBackgroundColor=#151d1e;fontSize=24;exitX=0.735;exitY=0.984;exitDx=0;exitDy=0;exitPerimeter=0;entryX=0.442;entryY=0.024;entryDx=0;entryDy=0;entryPerimeter=0;" parent="1" source="WtVcBaEnB1_Sni-o9t-m-4" target="WtVcBaEnB1_Sni-o9t-m-9" edge="1">
                    <mxGeometry width="50" height="50" relative="1" as="geometry">
                        <mxPoint x="985" y="580" as="sourcePoint"/>
                        <mxPoint x="1015" y="650" as="targetPoint"/>
                    </mxGeometry>
                </mxCell>
                <mxCell id="36" value="" style="endArrow=classic;html=1;labelBackgroundColor=#151d1e;fontSize=24;exitX=0.615;exitY=-0.035;exitDx=0;exitDy=0;entryX=0.5;entryY=1;entryDx=0;entryDy=0;exitPerimeter=0;" parent="1" source="WtVcBaEnB1_Sni-o9t-m-9" target="WtVcBaEnB1_Sni-o9t-m-3" edge="1">
                    <mxGeometry width="50" height="50" relative="1" as="geometry">
                        <mxPoint x="864.04" y="659.9999999999998" as="sourcePoint"/>
                        <mxPoint x="925" y="602.03" as="targetPoint"/>
                    </mxGeometry>
                </mxCell>
                <mxCell id="38" value="&lt;font style=&quot;font-size: 20px;&quot;&gt;创建调度器&lt;/font&gt;" style="ellipse;whiteSpace=wrap;html=1;fillColor=#60a917;strokeColor=#2D7600;shadow=1;fontColor=#ffffff;" vertex="1" parent="1">
                    <mxGeometry x="255" y="250" width="170" height="70" as="geometry"/>
                </mxCell>
                <mxCell id="55" value="" style="edgeStyle=none;html=1;" edge="1" parent="1" source="41" target="42">
                    <mxGeometry relative="1" as="geometry"/>
                </mxCell>
                <mxCell id="41" value="&lt;font style=&quot;font-size: 20px;&quot;&gt;开始调度&lt;/font&gt;" style="ellipse;whiteSpace=wrap;html=1;fillColor=#60a917;strokeColor=#2D7600;shadow=1;fontColor=#ffffff;" vertex="1" parent="1">
                    <mxGeometry x="475" y="250" width="170" height="70" as="geometry"/>
                </mxCell>
                <mxCell id="42" value="&lt;font style=&quot;font-size: 20px;&quot;&gt;添加调度任务&lt;/font&gt;" style="ellipse;whiteSpace=wrap;html=1;fillColor=#60a917;strokeColor=#2D7600;shadow=1;fontColor=#ffffff;" vertex="1" parent="1">
                    <mxGeometry x="790" y="250" width="170" height="70" as="geometry"/>
                </mxCell>
                <mxCell id="56" value="" style="edgeStyle=none;html=1;" edge="1" parent="1" source="43" target="19">
                    <mxGeometry relative="1" as="geometry"/>
                </mxCell>
                <mxCell id="43" value="&lt;font style=&quot;font-size: 20px;&quot;&gt;停止调度&lt;br&gt;（等待调度线程退出）&lt;/font&gt;" style="ellipse;whiteSpace=wrap;html=1;fillColor=#60a917;strokeColor=#2D7600;shadow=1;fontColor=#ffffff;" vertex="1" parent="1">
                    <mxGeometry x="1130" y="240" width="225" height="90" as="geometry"/>
                </mxCell>
                <mxCell id="50" value="" style="endArrow=classic;html=1;entryX=0;entryY=0.5;entryDx=0;entryDy=0;exitX=1;exitY=0.5;exitDx=0;exitDy=0;" edge="1" parent="1" source="38" target="41">
                    <mxGeometry width="50" height="50" relative="1" as="geometry">
                        <mxPoint x="400" y="290" as="sourcePoint"/>
                        <mxPoint x="450" y="240" as="targetPoint"/>
                    </mxGeometry>
                </mxCell>
                <mxCell id="53" value="" style="endArrow=classic;html=1;entryX=0;entryY=0.5;entryDx=0;entryDy=0;exitX=1;exitY=0.5;exitDx=0;exitDy=0;exitPerimeter=0;" edge="1" parent="1" source="42" target="43">
                    <mxGeometry width="50" height="50" relative="1" as="geometry">
                        <mxPoint x="914.9999999999977" y="284.41" as="sourcePoint"/>
                        <mxPoint x="1005.0000000000027" y="284.41" as="targetPoint"/>
                    </mxGeometry>
                </mxCell>
                <mxCell id="54" value="" style="endArrow=classic;html=1;entryX=0;entryY=0.5;entryDx=0;entryDy=0;exitX=1;exitY=0.5;exitDx=0;exitDy=0;" edge="1" parent="1" source="41" target="42">
                    <mxGeometry width="50" height="50" relative="1" as="geometry">
                        <mxPoint x="670" y="284" as="sourcePoint"/>
                        <mxPoint x="740.0000000000027" y="284.41" as="targetPoint"/>
                    </mxGeometry>
                </mxCell>
                <mxCell id="57" value="" style="endArrow=classic;html=1;entryX=0.5;entryY=0;entryDx=0;entryDy=0;exitX=0.5;exitY=1;exitDx=0;exitDy=0;" edge="1" parent="1" source="41" target="WtVcBaEnB1_Sni-o9t-m-2">
                    <mxGeometry width="50" height="50" relative="1" as="geometry">
                        <mxPoint x="510" y="400" as="sourcePoint"/>
                        <mxPoint x="560" y="350" as="targetPoint"/>
                    </mxGeometry>
                </mxCell>
                <mxCell id="58" value="&lt;font style=&quot;font-size: 20px;&quot;&gt;创&lt;br&gt;建&lt;br&gt;调&lt;br&gt;度&lt;br&gt;线&lt;br&gt;程&lt;/font&gt;" style="text;html=1;align=center;verticalAlign=middle;resizable=0;points=[];autosize=1;strokeColor=none;fillColor=none;rotation=0;" vertex="1" parent="1">
                    <mxGeometry x="560" y="340" width="40" height="160" as="geometry"/>
                </mxCell>
                <mxCell id="60" value="" style="endArrow=classic;html=1;entryX=0.5;entryY=1;entryDx=0;entryDy=0;exitX=0.5;exitY=0;exitDx=0;exitDy=0;" edge="1" parent="1" source="WtVcBaEnB1_Sni-o9t-m-3" target="62">
                    <mxGeometry width="50" height="50" relative="1" as="geometry">
                        <mxPoint x="1240" y="520" as="sourcePoint"/>
                        <mxPoint x="1131.9099999999999" y="520" as="targetPoint"/>
                    </mxGeometry>
                </mxCell>
                <mxCell id="62" value="&lt;font style=&quot;font-size: 20px;&quot;&gt;调度线程结束&lt;/font&gt;" style="ellipse;whiteSpace=wrap;html=1;fillColor=#d5e8d4;strokeColor=#82b366;shadow=1;" vertex="1" parent="1">
                    <mxGeometry x="1130" y="395" width="160" height="50" as="geometry"/>
                </mxCell>
                <mxCell id="63" value="" style="endArrow=classic;html=1;exitX=0.5;exitY=0;exitDx=0;exitDy=0;entryX=0.5;entryY=1;entryDx=0;entryDy=0;" edge="1" parent="1" source="62" target="43">
                    <mxGeometry width="50" height="50" relative="1" as="geometry">
                        <mxPoint x="1130" y="530" as="sourcePoint"/>
                        <mxPoint x="1220" y="490" as="targetPoint"/>
                    </mxGeometry>
                </mxCell>
            </root>
        </mxGraphModel>
    </diagram>
</mxfile>